<svg xmlns="http://www.w3.org/2000/svg" width="44" height="44" viewBox="0 0 44 44"><path fill="#31363b" d="M29.121 19.55l-6.29-6.196a.803.803 0 0 0-.082-.071.386.386 0 0 0-.038-.03c-.016-.011-.031-.024-.048-.034l-.048-.03c-.015-.009-.029-.018-.044-.025a.585.585 0 0 0-.051-.024.991.991 0 0 0-.047-.022l-.049-.018c-.018-.005-.035-.014-.053-.019l-.05-.013-.054-.013-.059-.008a1.134 1.134 0 0 0-.267-.007l-.05.008a.581.581 0 0 0-.058.009c-.019.003-.037.009-.055.013l-.05.013-.052.018a.712.712 0 0 0-.049.019c-.017.006-.032.014-.048.021l-.051.024-.044.026a.683.683 0 0 0-.048.029c-.016.01-.031.022-.047.034l-.04.028c-.042.035-.08.073-.117.113-.013.011-.026.021-.037.033l-6.313 6.219a1.082 1.082 0 0 0-.003 1.544 1.117 1.117 0 0 0 1.564-.002l4.495-4.426-.023 14.11c-.001.603.493 1.092 1.104 1.09s1.107-.49 1.109-1.095l.023-14.108 4.403 4.334c.432.426 1.133.424 1.565-.003s.434-1.116.002-1.541"/></svg>